<?xml version="1.0" encoding="UTF-8" standalone="no"?>
<!-- Generator: Adobe Illustrator 26.0.1, SVG Export Plug-In . SVG Version: 6.00 Build 0)  -->

<svg
   version="1.1"
   id="Layer_1"
   x="0px"
   y="0px"
   viewBox="0 0 456.89999 111.85922"
   xml:space="preserve"
   width="456.89999"
   height="111.85922"
   xmlns="http://www.w3.org/2000/svg"
   xmlns:svg="http://www.w3.org/2000/svg"><defs
   id="defs19" />
<style
   type="text/css"
   id="style1">
	.st0{fill:#6D28D9;}
</style>
<g
   id="g19"
   transform="translate(-320.8,-328.84078)">
	<path
   class="st0"
   d="m 571.4,376.7 c 0,7.8 -3.1,12.8 -9.3,15.1 l 12.3,17.4 H 561 l -10.8,-15.5 h -7.5 v 15.5 h -10.9 v -48.7 h 18.4 c 7.6,0 13,1.3 16.2,3.8 3.4,2.6 5,6.8 5,12.4 z m -13.1,5.8 c 1.3,-1.2 2,-3.1 2,-5.7 0,-2.6 -0.7,-4.4 -2.1,-5.4 -1.4,-1 -3.8,-1.5 -7.3,-1.5 h -8.1 v 14.4 h 7.9 c 3.8,0 6.3,-0.6 7.6,-1.8 z"
   id="path1" />
	<path
   class="st0"
   d="m 604.9,399.6 c 5.3,0 9.7,-2.1 13.1,-6.3 l 7,7.2 c -5.5,6.2 -12,9.3 -19.5,9.3 -7.5,0 -13.7,-2.4 -18.5,-7.1 -4.8,-4.7 -7.3,-10.7 -7.3,-17.9 0,-7.2 2.5,-13.2 7.4,-18.1 4.9,-4.8 11,-7.2 18.1,-7.2 8,0 14.7,3 20,9.1 l -6.8,7.7 c -3.4,-4.3 -7.7,-6.4 -12.8,-6.4 -4.1,0 -7.6,1.3 -10.5,4 -2.9,2.7 -4.3,6.3 -4.3,10.8 0,4.5 1.4,8.2 4.1,10.9 2.8,2.6 6.1,4 10,4 z"
   id="path2" />
	<path
   class="st0"
   d="m 719,360.6 h 10.9 v 48.7 H 719 l -23.2,-30.5 v 30.5 H 685 v -48.7 h 10.2 l 23.9,31.3 v -31.3 z"
   id="path3" />
	<path
   class="st0"
   d="m 741.9,360.6 v 9.7 h 10.9 v -0.1 H 777 v -9.7 h -35.1 z m 10.8,39 v 0 l -10.9,-0.1 v 9.7 h 35.9 v -9.6 z m 0,-10.1 h 21.8 v -9.3 h -32.6 v 9.3 z"
   id="path4" />
	<path
   class="st0"
   d="m 387.3,390.2 c 0,-1.6 0,-1.6 -1.6,-1.8 -2.8,-0.3 -5.6,-0.6 -8.5,-0.9 -1.7,-0.1 -3.4,-0.7 -5,0.1 -2.1,1 -4.3,2.1 -6.4,3.1 -0.4,0.2 -0.7,0.4 -0.7,0.9 0,0.9 0,1.9 0,2.8 0,0.6 0.2,1 0.9,1 0.5,0 0.8,0.3 0.8,0.9 v 12 c 6.3,-2.2 12.6,-4.1 18.9,-6.1 1.3,-0.4 1.6,-0.8 1.6,-2.2 0.1,-3.2 0,-6.5 0,-9.8 z m -15.6,7.6 c -0.1,0.7 -0.8,0.7 -1.2,0.7 -0.6,0 -0.3,-0.6 -0.4,-0.9 0,-0.3 0,-0.6 0,-0.9 0,0 0,0 0,0 0,-0.4 0,-0.8 0,-1.1 0,-0.6 0.7,-1.2 1.3,-1.2 0.3,0 0.2,0.2 0.2,0.3 0.3,1 0.2,2 0.1,3.1 z m 8.8,-0.1 c -0.6,0.3 -1.4,0.1 -2.1,-0.1 -0.2,0 -0.4,-0.1 -0.4,-0.4 -0.1,-0.9 -0.1,-1.8 0,-2.7 0,-0.2 0.2,-0.3 0.3,-0.3 0.1,0 0.2,0 0.3,0 1.8,-0.2 2.1,0.1 2.1,2 -0.1,0.5 0.2,1.3 -0.2,1.5 z m 2.9,0.3 c -0.1,-0.1 -0.3,-0.2 -0.3,-0.3 -0.1,-0.9 -0.1,-1.8 0,-2.7 0,-0.3 0.3,-0.4 0.6,-0.4 0.6,0.1 1.1,0.1 1.7,0.2 0.3,0.1 0.4,0.3 0.4,0.6 0,0.4 0,0.8 0,1.1 -0.1,1.8 -0.8,2.2 -2.4,1.5 z"
   id="path5" />
	<path
   class="st0"
   d="m 363,413.6 c 0,-1.2 0.7,-1.6 1.5,-1.9 3.4,-1.2 6.8,-2.4 10.2,-3.5 4,-1.3 8.1,-2.6 12.1,-3.8 1.8,-0.6 2.9,-1.8 3.2,-3.6 0.2,-1.1 0.9,-1.8 2,-2.2 8.6,-2.9 17.4,-5.4 26.4,-6.8 4.3,-0.6 8.6,-0.6 12.9,-0.3 1.6,0.1 3.2,0.3 4.8,0.7 1.7,0.4 1.8,0.6 1.3,2.3 -1.2,4 -3,7.8 -5.2,11.4 -2.1,3.5 -4.6,6.8 -6.5,10.5 -0.9,1.7 -1.7,3.5 -2.2,5.3 -0.1,0.4 -0.2,0.8 -0.7,0.4 -2,-1.5 -4.4,-1.9 -6.8,-2.1 -6.9,-0.5 -13.4,1 -19.9,2.9 -5.2,1.5 -10.4,3.3 -15.7,4.2 -3.8,0.6 -7.5,0.8 -11.3,-0.1 -0.7,-0.2 -1.2,-0.5 -1.6,-1.2 -2.1,-3.6 -3.7,-7.4 -4.4,-11.5 0,-0.4 0,-0.6 -0.1,-0.7 z"
   id="path6" />
	<path
   class="st0"
   d="m 422.8,430.9 c -0.3,1.4 -0.6,2.8 -0.9,4.3 0,0.2 -0.1,0.4 -0.1,0.6 -1.3,1.9 -3.7,3.3 -6.5,3.9 h -4.5 c -1.7,0 -3.4,-0.3 -5.1,-0.9 0,0 0,0 -0.1,0 -1.3,-0.4 -2.6,-0.7 -3.9,-0.8 -3.5,-0.2 -6.8,0.5 -10.2,1 -3.5,0.5 -6.9,1 -10.5,0.8 -5.5,-0.2 -10.7,-1.3 -15.5,-4.1 -3.3,-1.9 -5.7,-4.7 -7.3,-8.2 -0.1,-0.3 -0.3,-0.6 -0.4,-1 0,-0.1 0,-0.2 0,-0.2 0.2,-0.1 0.3,0 0.4,0 3.5,2.8 7.6,4.1 11.9,4.7 8.5,1.1 16.6,-1 24.4,-3.9 4,-1.5 8.1,-3 12.3,-3.7 3.5,-0.6 7,-0.8 10.5,-0.1 1.2,0.2 2.4,0.7 3.4,1.4 0.5,0.4 0.9,0.8 1.2,1.2 1.1,1.4 1.2,3.1 0.9,5 z"
   id="path7" />
	<path
   class="st0"
   d="m 389.2,390.7 c 0,-1.7 0,-3.4 0,-5.1 0,-0.7 0.2,-1.2 1,-1.3 2.3,-0.5 4.7,-1.1 7,-1.6 0.7,-0.2 1,0.1 1,0.8 0,3.3 0,6.5 0,9.8 0,0.6 -0.2,0.9 -0.8,1.1 -2.4,0.8 -4.8,1.6 -7.2,2.4 -0.8,0.3 -1,0 -1,-0.8 0,-1.9 0,-3.6 0,-5.3 z"
   id="path8" />
	<path
   class="st0"
   d="m 399.6,375.9 c 0,-1.2 0,-2.3 0,-3.5 0,-0.8 0.2,-1.1 1.1,-1 2.6,0.3 5.2,0.7 7.9,1.2 0.6,0.1 0.8,0.4 0.8,1 0,2.5 0,5 0,7.5 0,0.7 -0.3,0.9 -1,0.8 -2.5,-0.4 -5.1,-0.7 -7.6,-1.1 -0.9,-0.1 -1.2,-0.5 -1.1,-1.3 0,-1.3 -0.1,-2.4 -0.1,-3.6 z"
   id="path9" />
	<path
   class="st0"
   d="m 399.6,388 c 0,-1.5 0,-3 0,-4.5 0,-0.6 0.2,-0.9 0.9,-0.8 2.8,0.3 5.5,0.7 8.3,1 0.6,0.1 0.8,0.3 0.8,0.9 0,1.9 0,3.8 0,5.7 0,0.5 -0.2,0.8 -0.7,0.9 -2.7,0.7 -5.4,1.4 -8.1,2.1 -1,0.3 -1.1,0.2 -1.1,-0.9 -0.1,-1.4 -0.1,-2.9 -0.1,-4.4 z"
   id="path10" />
	<path
   class="st0"
   d="m 389.2,378.1 c 0,-1.2 0,-2.5 0,-3.7 0,-0.6 0.2,-0.9 0.8,-1 2.3,-0.6 4.6,-1.3 6.9,-1.9 1.1,-0.3 1.2,-0.2 1.2,1 0,2.3 0,4.5 0.1,6.8 0.1,0.8 -0.2,1.3 -1.1,1.5 -2.2,0.5 -4.5,1.1 -6.7,1.6 -1,0.3 -1.1,0.2 -1.2,-0.9 0,-1.1 0,-2.2 0,-3.4 z"
   id="path11" />
	<path
   class="st0"
   d="m 411,377.6 c 0,-1.3 0,-2.5 0,-3.8 0,-0.6 0.2,-0.9 0.9,-0.8 2.3,0.3 4.6,0.8 6.9,1.3 0.5,0.1 0.7,0.4 0.7,0.9 -0.1,2.4 -0.1,4.9 -0.2,7.3 0,0.5 -0.3,0.7 -0.8,0.7 -2.3,-0.3 -4.6,-0.6 -6.8,-0.9 -0.6,-0.1 -0.6,-0.5 -0.6,-0.9 -0.1,-1.3 -0.1,-2.5 -0.1,-3.8 z"
   id="path12" />
	<path
   class="st0"
   d="m 382.6,382.1 c 0,1.1 0,2.2 0,3.3 0,0.6 -0.2,0.9 -0.8,0.9 -1.6,-0.1 -3.3,-0.3 -4.9,-0.4 -0.4,0 -0.5,-0.3 -0.6,-0.6 -0.3,-2.2 -0.1,-4.3 -0.1,-6.5 0,-0.6 0.4,-0.8 0.9,-1 1.6,-0.5 3.3,-0.4 5,0 0.5,0.1 0.6,0.6 0.6,1 -0.1,1.1 -0.1,2.2 -0.1,3.3 z"
   id="path13" />
	<path
   class="st0"
   d="m 411.2,387.4 c 0,-0.8 0,-1.6 0,-2.4 0,-0.7 0.2,-1 0.9,-0.9 2.2,0.3 4.4,0.6 6.7,0.9 0.4,0.1 0.6,0.3 0.6,0.7 0,0.1 0,0.1 0,0.2 0.2,3.1 0.2,3.1 -2.9,3.7 -1.5,0.3 -3,0.6 -4.4,0.9 -0.7,0.2 -0.9,-0.1 -0.9,-0.7 0,-0.8 0,-1.6 0,-2.4 z"
   id="path14" />
	<path
   class="st0"
   d="m 422.9,433.1 c -0.2,1 -0.6,1.9 -1.2,2.7 -1.3,1.9 -3.7,3.3 -6.5,3.9 -2.9,0.7 -6.2,0.5 -9.5,-0.9 0,0 0,0 0,0 -8,-3.2 -13.2,-3.2 -14,-3.2 -0.8,0 10.1,-4.2 10.1,-4.2 l 5,-0.8 15.2,-4.6 c 0,0 0,0 0,0 0.1,0 1.8,1.6 0.9,7.1 z"
   id="path15" />
	<polygon
   class="st0"
   points="473.8,409.2 485.3,409.2 489.8,398.7 489.8,398.7 494,389.2 493.9,389.2 500.1,375 514.8,409.2 526.3,409.2 505.3,360.6 494.8,360.6 "
   id="polygon15" />
	<path
   class="st0"
   d="m 400.6,363.7 c 0.4,0 0.8,-0.4 0.6,-0.9 -1.3,-3.4 -2.7,-6.9 -4.1,-10.3 -3.1,-7.5 -6.1,-15.1 -9.1,-22.6 -0.4,-0.9 -0.9,-1.2 -2.2,-1 -5.7,0.9 -11.4,0.4 -17.2,0 -1,-0.1 -1.4,0.2 -1.7,0.9 -0.9,2.2 -1.8,4.3 -2.7,6.5 -3.7,9.2 -7.4,18.4 -11.1,27.6 -3.8,9.6 -7.7,19.1 -11.6,28.6 -4,10 -7.8,20.1 -12.1,30 -1.6,3.7 -5.6,12.5 -7.4,16.1 -0.4,0.8 -0.8,1.5 -1.2,2.1 h 20.7 c 0.1,-0.3 0.2,-0.6 0.3,-0.9 1,-3 3,-7.6 4.9,-12 v 0 L 357,402.3 c 0,-0.2 0.1,-0.4 0.2,-0.8 0.1,-0.2 0.1,-0.4 0.2,-0.6 1.5,-3.9 3.1,-7.8 4.6,-11.6 4.3,-10.9 8.5,-21.8 12.8,-32.7 0.7,-1.8 1.4,-3.5 2.1,-5.3 0.4,0.3 0.5,0.7 0.6,1 1.4,3.7 2.8,7.3 4.3,11 0.1,0.2 0.3,0.4 0.6,0.4 z"
   id="path16" />
	<polygon
   class="st0"
   points="386.5,331.8 386.5,332.6 380.7,335.9 376.2,337.4 373.9,338.3 368.6,328.9 385.8,329 "
   id="polygon16" />
	<polygon
   class="st0"
   points="763.4,365.2 759.8,364.4 753,364.4 741.9,370.3 777,370.2 "
   id="polygon17" />
	<polygon
   class="st0"
   points="767.2,403.4 759.8,404.4 755,404.4 741.9,399.5 777.7,399.6 "
   id="polygon18" />
	<polygon
   class="st0"
   points="626.8,409.2 638.4,409.2 642.9,398.7 642.9,398.7 647,389.2 647,389.2 653.1,375 667.8,409.2 679.4,409.2 658.3,360.6 647.8,360.6 "
   id="polygon19" />
</g>
</svg>
